<?xml version="1.0" standalone="no"?>
<!DOCTYPE svg PUBLIC "-//W3C//DTD SVG 20010904//EN"
 "http://www.w3.org/TR/2001/REC-SVG-20010904/DTD/svg10.dtd">
<svg version="1.0" xmlns="http://www.w3.org/2000/svg"
 width="300.000000pt" height="133.000000pt" viewBox="0 0 300.000000 133.000000"
 preserveAspectRatio="xMidYMid meet">
<metadata>
Created by potrace 1.10, written by Peter Selinger 2001-2011
</metadata>
<g transform="translate(0.000000,133.000000) scale(0.100000,-0.100000)"
fill="#080808" stroke="none">
<path d="M2708 1059 c-22 -12 -23 -52 -3 -69 8 -7 25 -10 39 -6 33 8 43 42 20
67 -19 21 -31 23 -56 8z"/>
<path d="M810 880 l0 -40 55 0 55 0 0 40 0 40 -55 0 -55 0 0 -40z"/>
<path d="M314 876 c-10 -27 1 -50 26 -56 l25 -6 0 -179 0 -179 -25 -6 c-20 -5
-25 -12 -25 -35 l0 -30 103 -3 103 -3 -3 33 c-2 25 -8 34 -25 36 -21 3 -23 9
-23 63 l0 59 68 0 c126 1 196 57 196 157 0 56 -17 90 -65 126 -38 28 -91 36
-227 37 -98 0 -124 -3 -128 -14z m292 -90 c21 -18 28 -32 28 -60 0 -54 -28
-76 -103 -83 l-61 -6 0 87 0 86 54 0 c43 0 61 -5 82 -24z"/>
<path d="M1450 820 l0 -70 34 0 c30 0 35 4 41 30 6 28 10 30 51 30 l44 0 0
-180 0 -180 -25 0 c-22 0 -25 -4 -25 -35 l0 -35 100 0 100 0 0 35 c0 31 -3 35
-25 35 l-25 0 0 180 0 180 44 0 c41 0 45 -2 51 -30 6 -26 11 -30 41 -30 l34 0
0 70 0 70 -220 0 -220 0 0 -70z"/>
<path d="M762 728 c2 -28 8 -34 31 -36 l28 -3 -3 -117 c-3 -113 -4 -117 -25
-120 -19 -3 -23 -10 -23 -38 l0 -35 98 3 97 3 0 30 c0 23 -5 31 -22 33 -23 3
-23 5 -23 158 l0 154 -81 0 -80 0 3 -32z"/>
<path d="M1002 728 c2 -23 9 -34 25 -38 11 -3 42 -31 68 -62 l47 -57 -53 -61
c-36 -40 -61 -60 -76 -60 -20 0 -23 -5 -23 -35 l0 -35 95 0 95 0 0 30 c0 17
-4 30 -10 30 -17 0 -11 23 13 52 l22 28 28 -35 c23 -29 25 -36 13 -41 -10 -4
-16 -18 -16 -35 l0 -29 96 0 95 0 -3 32 c-2 24 -9 34 -25 38 -28 6 -125 119
-116 134 24 39 89 105 109 110 20 5 25 12 22 34 -3 27 -4 27 -90 30 l-88 3 0
-30 c0 -16 6 -31 13 -34 9 -3 6 -12 -8 -32 -27 -36 -33 -36 -59 -1 -15 21 -17
30 -8 33 6 3 12 18 12 34 l0 29 -91 0 -90 0 3 -32z"/>
<path d="M1963 745 c-31 -13 -33 -17 -33 -65 0 -50 0 -50 33 -50 27 0 35 5 44
30 10 26 16 30 50 30 46 0 63 -14 63 -51 0 -25 -3 -26 -60 -32 -105 -11 -150
-49 -150 -124 0 -62 31 -94 99 -101 44 -4 58 -1 83 18 25 18 32 20 39 9 5 -8
9 -17 9 -21 0 -5 27 -8 60 -8 l60 0 0 35 c0 28 -4 35 -20 35 -19 0 -20 7 -20
113 -1 122 -8 146 -56 178 -36 23 -152 26 -201 4z m157 -234 c0 -20 -8 -35
-22 -45 -42 -30 -88 -15 -88 29 0 32 20 45 67 45 41 0 43 -1 43 -29z"/>
<path d="M2357 726 c-58 -58 -74 -194 -32 -275 32 -63 130 -92 183 -55 30 21
37 12 26 -28 -14 -49 -50 -65 -116 -51 -58 12 -62 11 -72 -30 -6 -23 -3 -29
21 -38 49 -20 155 -16 193 7 66 38 75 68 78 261 3 159 5 171 23 176 14 4 19
14 19 36 l0 31 -65 0 c-58 0 -65 -2 -65 -20 0 -11 -3 -20 -6 -20 -3 0 -17 9
-31 20 -18 14 -41 20 -74 20 -42 0 -53 -5 -82 -34z m146 -47 c12 -7 25 -17 29
-23 10 -14 10 -158 0 -173 -14 -22 -57 -32 -83 -19 -37 18 -51 53 -45 121 4
49 9 64 31 82 30 26 38 27 68 12z"/>
</g>
</svg>
